<svg width="167" height="57" viewBox="0 0 167 57" fill="none" xmlns="http://www.w3.org/2000/svg">
<g clip-path="url(#clip0)">
<path d="M153.702 0.155762H13.3074C12.7952 0.155762 12.2886 0.155762 11.7792 0.158553C11.3522 0.161344 10.9279 0.169717 10.4967 0.176695C9.55958 0.186928 8.62463 0.268573 7.69994 0.420921C6.77708 0.577514 5.88315 0.872512 5.04835 1.29595C4.2134 1.72348 3.45054 2.27914 2.78752 2.94272C2.12219 3.60328 1.56756 4.36666 1.14493 5.20355C0.720783 6.03929 0.426653 6.93486 0.272695 7.85933C0.117406 8.7828 0.033887 9.7169 0.0228867 10.6533C0.008931 11.0817 0.008931 11.5115 0.00195312 11.9386V44.2001C0.008931 44.6327 0.0103266 45.0514 0.0228867 45.4854C0.0343427 46.4218 0.118328 47.3559 0.27409 48.2794C0.427056 49.2048 0.720734 50.1013 1.14493 50.9379C1.56796 51.7716 2.12313 52.5313 2.78892 53.1876C3.44867 53.8534 4.21106 54.4089 5.04695 54.833C5.88224 55.2573 6.77656 55.5537 7.69994 55.7122C8.62471 55.8642 9.55957 55.9468 10.4967 55.9592C10.9293 55.969 11.3522 55.9745 11.7792 55.9745C12.29 55.9773 12.7952 55.9773 13.3074 55.9773H153.702C154.205 55.9773 154.713 55.9773 155.215 55.9745C155.639 55.9745 156.076 55.969 156.502 55.9606C157.437 55.9483 158.37 55.8653 159.293 55.7122C160.219 55.5525 161.116 55.2562 161.956 54.833C162.791 54.4087 163.553 53.8532 164.212 53.1876C164.877 52.528 165.434 51.7678 165.862 50.9351C166.283 50.098 166.575 49.2015 166.726 48.2766C166.881 47.353 166.967 46.4191 166.984 45.4826C166.989 45.05 166.989 44.6313 166.989 44.1973C167.001 43.6893 167.001 43.1855 167.001 42.6705V13.464C167.001 12.9532 167.001 12.4452 166.989 11.94C166.989 11.5129 166.989 11.0831 166.984 10.6561C166.967 9.71916 166.881 8.78479 166.726 7.86073C166.574 6.93672 166.282 6.04122 165.86 5.20495C164.999 3.52623 163.634 2.15964 161.956 1.29734C161.116 0.874863 160.219 0.579941 159.293 0.422316C158.37 0.268856 157.437 0.186739 156.502 0.176695C156.076 0.169717 155.639 0.161344 155.215 0.158553C154.713 0.155762 154.203 0.155762 153.702 0.155762V0.155762Z" fill="#A6A6A6"/>
<path d="M11.786 54.7572C11.3604 54.7572 10.9459 54.7516 10.5244 54.7432C9.65007 54.7315 8.77778 54.655 7.91471 54.5143C7.11064 54.3757 6.33173 54.1179 5.60364 53.7496C4.88197 53.3845 4.2237 52.9058 3.65403 52.3317C3.07635 51.7638 2.5955 51.1052 2.23054 50.3821C1.8608 49.6546 1.60477 48.8747 1.47135 48.0696C1.32801 47.2045 1.25057 46.3297 1.23968 45.4529C1.22991 45.1598 1.21875 44.1787 1.21875 44.1787V11.941C1.21875 11.941 1.23131 10.9752 1.23968 10.6919C1.25008 9.81651 1.32706 8.94315 1.46995 8.07941C1.60339 7.2721 1.85941 6.48992 2.22915 5.75996C2.59299 5.03748 3.07134 4.37862 3.64565 3.80895C4.21917 3.23366 4.8794 2.75191 5.60225 2.38128C6.32884 2.01409 7.10648 1.75817 7.90913 1.62209C8.77489 1.48052 9.65004 1.40402 10.5272 1.39321L11.786 1.37646H155.208L156.482 1.39461C157.351 1.40469 158.218 1.48026 159.075 1.62069C159.886 1.75846 160.672 2.01621 161.407 2.38547C162.855 3.13193 164.034 4.31286 164.777 5.76275C165.141 6.48782 165.392 7.2637 165.524 8.06406C165.669 8.93479 165.75 9.81495 165.767 10.6975C165.771 11.0925 165.771 11.5181 165.771 11.9396C165.782 12.4629 165.782 12.9611 165.782 13.4635V42.6715C165.782 43.1781 165.782 43.6735 165.771 44.1717C165.771 44.6253 165.771 45.0412 165.765 45.4696C165.749 46.3363 165.67 47.2006 165.528 48.0556C165.398 48.8665 165.144 49.6526 164.774 50.3862C164.406 51.1016 163.928 51.7543 163.357 52.3205C162.786 52.8978 162.126 53.3794 161.403 53.7468C160.67 54.1181 159.885 54.3768 159.075 54.5143C158.212 54.6552 157.341 54.7312 156.467 54.7418C156.058 54.7516 155.629 54.7572 155.215 54.7572L153.702 54.76L11.786 54.7572Z" fill="black"/>
<path d="M34.5668 28.4859C34.582 27.3214 34.8914 26.1796 35.4662 25.1668C36.0411 24.154 36.8627 23.3029 37.8547 22.6929C37.2245 21.7926 36.3931 21.0517 35.4265 20.529C34.4599 20.0062 33.3847 19.7159 32.2864 19.6812C29.9418 19.4356 27.6698 21.0838 26.4752 21.0838C25.2583 21.0838 23.4189 19.7049 21.44 19.7468C20.1593 19.7881 18.9111 20.1606 17.8171 20.8278C16.7231 21.495 15.8206 22.4342 15.1976 23.5539C12.4985 28.2263 14.5124 35.0939 17.097 38.8718C18.3907 40.7209 19.9021 42.7863 21.881 42.7138C23.8166 42.6328 24.5396 41.4787 26.8771 41.4787C29.191 41.4787 29.8693 42.7138 31.8873 42.6677C33.9653 42.6328 35.2729 40.8088 36.5206 38.9415C37.4507 37.624 38.1666 36.1676 38.6418 34.6264C37.4347 34.1161 36.4045 33.2617 35.6798 32.1697C34.9551 31.0777 34.568 29.7965 34.5668 28.4859Z" fill="white"/>
<path d="M30.7537 17.1962C31.8863 15.837 32.4445 14.0898 32.3097 12.3257C30.5791 12.5074 28.9806 13.3345 27.8327 14.6423C27.2716 15.2808 26.8419 16.0235 26.5679 16.8281C26.294 17.6326 26.1813 18.4833 26.2362 19.3315C27.1016 19.3404 27.9578 19.1529 28.7403 18.783C29.5228 18.4132 30.2112 17.8706 30.7537 17.1962Z" fill="white"/>
<path d="M59.0337 38.0315H52.4298L50.843 42.715H48.0449L54.3027 25.3848H57.2097L63.466 42.715H60.6204L59.0337 38.0315ZM53.1122 35.8683H58.3484L55.7666 28.268H55.6955L53.1122 35.8683Z" fill="white"/>
<path d="M76.9804 36.4C76.9804 40.3257 74.8787 42.8475 71.7065 42.8475C70.9035 42.8894 70.1048 42.7044 69.402 42.3137C68.6991 41.923 68.1204 41.3424 67.7319 40.6383H67.6719V46.8961H65.0762V30.0808H67.5882V32.1825H67.6343C68.0405 31.4815 68.6291 30.9036 69.3376 30.5104C70.0461 30.1172 70.8479 29.9234 71.6577 29.9496C74.8647 29.9496 76.979 32.484 76.979 36.4H76.9804ZM74.3149 36.4C74.3149 33.8419 72.9919 32.1602 70.9753 32.1602C68.9935 32.1602 67.6608 33.8768 67.6608 36.4C67.6608 38.9455 68.9935 40.6509 70.9753 40.6509C72.9919 40.6509 74.3149 38.9804 74.3149 36.4Z" fill="white"/>
<path d="M90.8853 36.4C90.8853 40.3257 88.7835 42.8475 85.6114 42.8475C84.8083 42.8894 84.0097 42.7044 83.3068 42.3137C82.604 41.923 82.0252 41.3424 81.6368 40.6383H81.5768V46.8961H78.9824V30.0808H81.4931V32.1825H81.5405C81.9467 31.4815 82.5354 30.9036 83.2438 30.5104C83.9523 30.1172 84.7541 29.9234 85.564 29.9496C88.771 29.9496 90.8853 32.484 90.8853 36.4ZM88.2197 36.4C88.2197 33.8419 86.8967 32.1602 84.8801 32.1602C82.8984 32.1602 81.5656 33.8768 81.5656 36.4C81.5656 38.9455 82.8984 40.6509 84.8801 40.6509C86.8967 40.6509 88.2183 38.9804 88.2183 36.4H88.2197Z" fill="white"/>
<path d="M100.076 37.8881C100.269 39.6074 101.938 40.7351 104.221 40.7351C106.407 40.7351 107.979 39.6074 107.979 38.057C107.979 36.7116 107.03 35.9078 104.784 35.3551L102.538 34.8136C99.3561 34.0461 97.8782 32.557 97.8782 30.1413C97.8782 27.1519 100.484 25.0977 104.185 25.0977C107.847 25.0977 110.357 27.1519 110.441 30.1413H107.823C107.667 28.4121 106.238 27.3683 104.147 27.3683C102.057 27.3683 100.629 28.4247 100.629 29.9612C100.629 31.1865 101.542 31.9081 103.776 32.4593L105.685 32.9282C109.241 33.7698 110.718 35.1974 110.718 37.7332C110.718 40.9751 108.136 43.0057 104.029 43.0057C100.185 43.0057 97.5893 41.0239 97.4219 37.8881H100.076Z" fill="white"/>
<path d="M116.315 27.0908V30.0801H118.718V32.1344H116.315V39.0997C116.315 40.1827 116.797 40.6865 117.853 40.6865C118.138 40.6815 118.423 40.6615 118.706 40.6265V42.6682C118.231 42.757 117.748 42.7972 117.266 42.7882C114.707 42.7882 113.71 41.8267 113.71 39.3761V32.1344H111.873V30.0801H113.71V27.0908H116.315Z" fill="white"/>
<path d="M120.109 36.3989C120.109 32.4229 122.451 29.9248 126.102 29.9248C129.765 29.9248 132.096 32.4229 132.096 36.3989C132.096 40.3846 129.778 42.8715 126.102 42.8715C122.427 42.8715 120.109 40.3846 120.109 36.3989ZM129.453 36.3989C129.453 33.6719 128.204 32.0614 126.102 32.0614C124 32.0614 122.753 33.6831 122.753 36.3989C122.753 39.137 124 40.7335 126.102 40.7335C128.204 40.7335 129.453 39.137 129.453 36.3989Z" fill="white"/>
<path d="M134.234 30.0806H136.709V32.2312H136.769C136.936 31.5599 137.33 30.9668 137.883 30.5514C138.436 30.1359 139.116 29.9233 139.807 29.9494C140.106 29.9482 140.404 29.9805 140.696 30.0457V32.4712C140.319 32.3561 139.925 32.3033 139.531 32.3149C139.154 32.2996 138.778 32.366 138.429 32.5096C138.081 32.6532 137.767 32.8705 137.51 33.1467C137.254 33.4228 137.06 33.7513 136.942 34.1095C136.824 34.4677 136.785 34.8472 136.827 35.2219V42.7161H134.234V30.0806Z" fill="white"/>
<path d="M152.654 39.0044C152.305 41.2973 150.072 42.8715 147.214 42.8715C143.538 42.8715 141.256 40.4098 141.256 36.4589C141.256 32.4955 143.55 29.9248 147.103 29.9248C150.601 29.9248 152.797 32.3252 152.797 36.1574V37.0464H143.874V37.2027C143.833 37.6677 143.891 38.1362 144.045 38.5769C144.199 39.0177 144.445 39.4206 144.766 39.7591C145.088 40.0975 145.478 40.3637 145.91 40.5398C146.342 40.716 146.807 40.7982 147.274 40.781C147.886 40.8383 148.501 40.6963 149.026 40.3762C149.552 40.0562 149.96 39.575 150.19 39.0044H152.654ZM143.887 35.2336H150.203C150.226 34.8155 150.163 34.3971 150.017 34.0047C149.871 33.6123 149.645 33.2543 149.355 32.9531C149.064 32.652 148.714 32.4142 148.326 32.2548C147.939 32.0953 147.523 32.0176 147.105 32.0265C146.682 32.024 146.264 32.1051 145.873 32.2652C145.482 32.4253 145.127 32.6613 144.827 32.9594C144.528 33.2576 144.291 33.6121 144.129 34.0024C143.968 34.3927 143.885 34.8112 143.887 35.2336Z" fill="white"/>
<path d="M52.7907 12.3415C53.3344 12.3025 53.8801 12.3846 54.3883 12.582C54.8965 12.7794 55.3545 13.0871 55.7294 13.4829C56.1043 13.8788 56.3866 14.3529 56.5561 14.871C56.7256 15.3892 56.7779 15.9385 56.7094 16.4794C56.7094 19.1393 55.272 20.6689 52.7907 20.6689H49.7832V12.3401L52.7907 12.3415ZM51.0769 19.491H52.6469C53.0354 19.514 53.424 19.4502 53.7847 19.3041C54.1454 19.158 54.4689 18.9334 54.7319 18.6465C54.9948 18.3597 55.1905 18.0178 55.3047 17.6458C55.4189 17.2738 55.4487 16.8811 55.392 16.4961C55.4447 16.1126 55.4119 15.7222 55.2959 15.3529C55.18 14.9836 54.9839 14.6445 54.7215 14.3599C54.4592 14.0753 54.1372 13.8522 53.7785 13.7067C53.4198 13.5611 53.0334 13.4967 52.6469 13.5179H51.0769V19.491Z" fill="white"/>
<path d="M58.1695 17.5239C58.1315 17.1117 58.1799 16.6961 58.3116 16.3036C58.4433 15.9112 58.6554 15.5505 58.9344 15.2447C59.2133 14.9389 59.553 14.6946 59.9317 14.5274C60.3104 14.3603 60.7198 14.2739 61.1337 14.2739C61.5477 14.2739 61.957 14.3603 62.3357 14.5274C62.7144 14.6946 63.0541 14.9389 63.3331 15.2447C63.612 15.5505 63.8241 15.9112 63.9558 16.3036C64.0875 16.6961 64.1359 17.1117 64.0979 17.5239C64.1391 17.9378 64.0932 18.3558 63.963 18.7509C63.8328 19.1459 63.6213 19.5094 63.3421 19.8178C63.0629 20.1261 62.7223 20.3726 62.342 20.5413C61.9618 20.7099 61.5504 20.7971 61.1344 20.7971C60.7184 20.7971 60.3071 20.7099 59.9268 20.5413C59.5466 20.3726 59.2059 20.1261 58.9267 19.8178C58.6475 19.5094 58.436 19.1459 58.3058 18.7509C58.1756 18.3558 58.1297 17.9378 58.1709 17.5239H58.1695ZM62.8224 17.5239C62.8224 16.1618 62.2097 15.3649 61.1365 15.3649C60.0577 15.3649 59.452 16.1618 59.452 17.5239C59.452 18.8971 60.0577 19.687 61.1365 19.687C62.2111 19.687 62.8224 18.8915 62.8224 17.5239Z" fill="white"/>
<path d="M71.9756 20.6695H70.6889L69.391 16.0404H69.2933L67.9996 20.6695H66.7255L64.9922 14.3853H66.251L67.3758 19.1804H67.4693L68.7616 14.3853H69.9507L71.243 19.1804H71.3407L72.4613 14.3853H73.702L71.9756 20.6695Z" fill="white"/>
<path d="M75.1602 14.3845H76.3534V15.3823H76.4455C76.6028 15.0238 76.868 14.7232 77.2042 14.5226C77.5405 14.322 77.9309 14.2312 78.3211 14.2631C78.6269 14.2401 78.934 14.2862 79.2196 14.398C79.5052 14.5098 79.7619 14.6844 79.9709 14.9089C80.1798 15.1334 80.3356 15.402 80.4266 15.6948C80.5177 15.9877 80.5417 16.2973 80.4968 16.6006V20.6687H79.2562V16.9119C79.2562 15.9015 78.818 15.3991 77.8997 15.3991C77.6921 15.3894 77.4849 15.4248 77.2923 15.5027C77.0997 15.5807 76.9262 15.6993 76.7837 15.8506C76.6412 16.0018 76.5331 16.182 76.4668 16.379C76.4005 16.5759 76.3775 16.7848 76.3994 16.9914V20.6687H75.1602V14.3845Z" fill="white"/>
<path d="M82.4727 11.9316H83.7119V20.6679H82.4727V11.9316Z" fill="white"/>
<path d="M85.4365 17.524C85.3974 17.1113 85.445 16.6949 85.5762 16.3016C85.7073 15.9084 85.9192 15.5468 86.1982 15.2401C86.4772 14.9335 86.8171 14.6885 87.1963 14.5208C87.5755 14.3532 87.9855 14.2666 88.4 14.2666C88.8146 14.2666 89.2246 14.3532 89.6038 14.5208C89.983 14.6885 90.3229 14.9335 90.6019 15.2401C90.8809 15.5468 91.0928 15.9084 91.2239 16.3016C91.3551 16.6949 91.4026 17.1113 91.3635 17.524C91.4047 17.9379 91.3588 18.3559 91.2286 18.751C91.0984 19.1461 90.887 19.5095 90.6078 19.8179C90.3286 20.1263 89.9879 20.3727 89.6076 20.5414C89.2274 20.7101 88.816 20.7972 88.4 20.7972C87.9841 20.7972 87.5727 20.7101 87.1924 20.5414C86.8122 20.3727 86.4715 20.1263 86.1923 19.8179C85.9131 19.5095 85.7016 19.1461 85.5714 18.751C85.4413 18.3559 85.3953 17.9379 85.4365 17.524ZM90.088 17.524C90.088 16.1619 89.4753 15.365 88.4021 15.365C87.3233 15.365 86.7177 16.1619 86.7177 17.524C86.7177 18.8972 87.3233 19.6871 88.4021 19.6871C89.4767 19.6871 90.088 18.8917 90.088 17.524Z" fill="white"/>
<path d="M92.668 18.8918C92.668 17.7614 93.5109 17.1083 95.0069 17.0162L96.7095 16.9185V16.3756C96.7095 15.7127 96.2699 15.3373 95.4228 15.3373C94.7292 15.3373 94.2505 15.5913 94.1124 16.0351H92.9122C93.0378 14.9563 94.0538 14.2627 95.48 14.2627C97.0543 14.2627 97.9432 15.0484 97.9432 16.3756V20.6698H96.75V19.7864H96.6523C96.4531 20.1033 96.1733 20.3616 95.8416 20.5349C95.5098 20.7083 95.138 20.7904 94.7641 20.773C94.5003 20.8006 94.2335 20.7724 93.9812 20.6905C93.7289 20.6086 93.4965 20.4747 93.2992 20.2974C93.1018 20.1201 92.9437 19.9035 92.8353 19.6614C92.7268 19.4193 92.6703 19.1571 92.6694 18.8918H92.668ZM96.7082 18.3559V17.8298L95.173 17.9275C94.3078 17.9861 93.917 18.2806 93.917 18.8346C93.917 19.3998 94.4068 19.7278 95.0809 19.7278C95.2784 19.7477 95.4779 19.7277 95.6676 19.6691C95.8572 19.6104 96.0332 19.5142 96.1849 19.3863C96.3367 19.2583 96.4612 19.1012 96.5511 18.9242C96.641 18.7472 96.6944 18.5539 96.7082 18.3559Z" fill="white"/>
<path d="M99.5742 17.5237C99.5742 15.5378 100.596 14.2804 102.184 14.2804C102.576 14.2625 102.966 14.3567 103.307 14.5519C103.648 14.7471 103.926 15.0354 104.11 15.3829H104.203V11.9316H105.443V20.6679H104.255V19.6771H104.157C103.959 20.0225 103.671 20.3072 103.323 20.5003C102.975 20.6934 102.58 20.7876 102.183 20.7726C100.585 20.7726 99.5742 19.5152 99.5742 17.5237ZM100.855 17.5237C100.855 18.8565 101.483 19.6589 102.534 19.6589C103.581 19.6589 104.226 18.8453 104.226 17.5293C104.226 16.2202 103.573 15.3941 102.534 15.3941C101.49 15.3941 100.855 16.2035 100.855 17.5237Z" fill="white"/>
<path d="M110.573 17.524C110.534 17.1113 110.582 16.6949 110.713 16.3016C110.844 15.9084 111.056 15.5468 111.335 15.2401C111.614 14.9335 111.954 14.6885 112.333 14.5208C112.712 14.3532 113.122 14.2666 113.537 14.2666C113.951 14.2666 114.361 14.3532 114.74 14.5208C115.12 14.6885 115.46 14.9335 115.739 15.2401C116.018 15.5468 116.229 15.9084 116.361 16.3016C116.492 16.6949 116.539 17.1113 116.5 17.524C116.541 17.9379 116.496 18.3559 116.365 18.751C116.235 19.1461 116.024 19.5095 115.744 19.8179C115.465 20.1263 115.125 20.3727 114.744 20.5414C114.364 20.7101 113.953 20.7972 113.537 20.7972C113.121 20.7972 112.709 20.7101 112.329 20.5414C111.949 20.3727 111.608 20.1263 111.329 19.8179C111.05 19.5095 110.838 19.1461 110.708 18.751C110.578 18.3559 110.532 17.9379 110.573 17.524ZM115.225 17.524C115.225 16.1619 114.613 15.365 113.539 15.365C112.461 15.365 111.854 16.1619 111.854 17.524C111.854 18.8972 112.461 19.6871 113.539 19.6871C114.613 19.6871 115.225 18.8917 115.225 17.524Z" fill="white"/>
<path d="M118.165 14.3845H119.359V15.3823H119.451C119.608 15.0238 119.873 14.7232 120.21 14.5226C120.546 14.322 120.936 14.2312 121.326 14.2631C121.632 14.2401 121.939 14.2862 122.225 14.398C122.51 14.5098 122.767 14.6844 122.976 14.9089C123.185 15.1334 123.341 15.402 123.432 15.6948C123.523 15.9877 123.547 16.2973 123.502 16.6006V20.6687H122.261V16.9119C122.261 15.9015 121.823 15.3991 120.905 15.3991C120.697 15.3894 120.49 15.4248 120.298 15.5027C120.105 15.5807 119.931 15.6993 119.789 15.8506C119.647 16.0018 119.538 16.182 119.472 16.379C119.406 16.5759 119.383 16.7848 119.405 16.9914V20.6687H118.164L118.165 14.3845Z" fill="white"/>
<path d="M130.508 12.8213V14.4136H131.87V15.4589H130.508V18.6897C130.508 19.3484 130.779 19.6373 131.397 19.6373C131.555 19.6365 131.713 19.6268 131.87 19.608V20.6407C131.647 20.6809 131.421 20.7023 131.195 20.7049C129.816 20.7049 129.267 20.2192 129.267 19.0079V15.4589H128.27V14.4136H129.267V12.8213H130.508Z" fill="white"/>
<path d="M133.564 11.9316H134.793V15.3941H134.89C135.055 15.0321 135.328 14.7299 135.671 14.5287C136.014 14.3274 136.411 14.2368 136.808 14.2692C137.112 14.2527 137.416 14.3036 137.698 14.4181C137.98 14.5327 138.234 14.7081 138.441 14.932C138.647 15.1558 138.802 15.4224 138.894 15.7129C138.985 16.0034 139.012 16.3105 138.971 16.6124V20.6693H137.73V16.918C137.73 15.9132 137.263 15.4052 136.386 15.4052C136.173 15.3877 135.959 15.417 135.758 15.491C135.557 15.5651 135.375 15.6821 135.224 15.834C135.074 15.9858 134.958 16.1687 134.885 16.3699C134.812 16.5712 134.785 16.7859 134.804 16.999V20.6693H133.564V11.9316Z" fill="white"/>
<path d="M146.203 18.9724C146.035 19.5465 145.67 20.0432 145.173 20.3756C144.675 20.708 144.077 20.855 143.482 20.7909C143.068 20.8021 142.656 20.723 142.275 20.559C141.895 20.395 141.555 20.1501 141.278 19.8413C141.002 19.5326 140.796 19.1673 140.675 18.7709C140.554 18.3746 140.521 17.9566 140.578 17.5462C140.523 17.1347 140.557 16.7163 140.678 16.3191C140.798 15.9219 141.003 15.5553 141.278 15.2441C141.552 14.9329 141.891 14.6843 142.27 14.5152C142.649 14.3461 143.06 14.2603 143.475 14.2638C145.224 14.2638 146.279 15.4584 146.279 17.4317V17.8644H141.841V17.9341C141.821 18.1648 141.85 18.3971 141.926 18.6159C142.001 18.8348 142.122 19.0354 142.28 19.2049C142.437 19.3745 142.629 19.5091 142.842 19.6003C143.054 19.6915 143.284 19.7372 143.515 19.7344C143.812 19.7695 144.112 19.7159 144.378 19.5802C144.644 19.4445 144.863 19.233 145.009 18.9724H146.203ZM141.841 16.9475H145.016C145.032 16.7364 145.003 16.5244 144.932 16.325C144.861 16.1256 144.749 15.9434 144.603 15.7899C144.457 15.6365 144.281 15.5153 144.085 15.4342C143.89 15.353 143.68 15.3138 143.468 15.3188C143.254 15.3162 143.041 15.3565 142.842 15.4375C142.643 15.5184 142.463 15.6383 142.311 15.7901C142.159 15.9419 142.04 16.1225 141.959 16.3212C141.878 16.52 141.838 16.7329 141.841 16.9475Z" fill="white"/>
</g>
<defs>
<clipPath id="clip0">
<rect width="167" height="56.1345" fill="white"/>
</clipPath>
</defs>
</svg>
