<svg width="58" height="58" viewBox="0 0 58 58" fill="none" xmlns="http://www.w3.org/2000/svg">
<path d="M30.875 40.875C36.3978 40.875 40.875 36.3978 40.875 30.875C40.875 25.3522 36.3978 20.875 30.875 20.875C25.3522 20.875 20.875 25.3522 20.875 30.875C20.875 36.3978 25.3522 40.875 30.875 40.875Z" fill="#A1B0FF"/>
<path d="M29 39.625C34.868 39.625 39.625 34.868 39.625 29C39.625 23.132 34.868 18.375 29 18.375C23.132 18.375 18.375 23.132 18.375 29C18.375 34.868 23.132 39.625 29 39.625Z" stroke="black" stroke-width="1.25"/>
<path d="M18.3923 39.6066C8.62922 29.8435 5.4634 17.1802 11.3213 11.3223C17.1791 5.46444 29.8424 8.63027 39.6055 18.3934C49.3686 28.1565 52.5345 40.8198 46.6766 46.6776C40.8187 52.5355 28.1554 49.3697 18.3923 39.6066Z" stroke="black" stroke-width="1.25"/>
<path d="M39.6057 39.6066C49.3688 29.8435 52.5346 17.1802 46.6768 11.3223C40.8189 5.46444 28.1556 8.63027 18.3925 18.3934C8.62941 28.1565 5.46358 40.8198 11.3214 46.6776C17.1793 52.5355 29.8426 49.3697 39.6057 39.6066Z" stroke="black" stroke-width="1.25"/>
<path d="M29 34C31.7614 34 34 31.7614 34 29C34 26.2386 31.7614 24 29 24C26.2386 24 24 26.2386 24 29C24 31.7614 26.2386 34 29 34Z" stroke="black" stroke-width="1.25"/>
</svg>
