<svg width="38" height="56" viewBox="0 0 38 56" fill="none" xmlns="http://www.w3.org/2000/svg">
<g clip-path="url(#clip0)">
<path d="M9.33724 55.9999C14.4892 55.9999 18.6706 51.8186 18.6706 46.6666V37.3333H9.33724C4.18524 37.3333 0.00390625 41.5146 0.00390625 46.6666C0.00390625 51.8186 4.18524 55.9999 9.33724 55.9999Z" fill="#0ACF83"/>
<path d="M0.00390625 28.0001C0.00390625 22.8481 4.18524 18.6667 9.33724 18.6667H18.6706V37.3334H9.33724C4.18524 37.3334 0.00390625 33.1521 0.00390625 28.0001Z" fill="#A259FF"/>
<path d="M0.00390625 9.33333C0.00390625 4.18133 4.18524 0 9.33724 0H18.6706V18.6667H9.33724C4.18524 18.6667 0.00390625 14.4853 0.00390625 9.33333Z" fill="#F24E1E"/>
<path d="M18.6699 0H28.0033C33.1553 0 37.3366 4.18133 37.3366 9.33333C37.3366 14.4853 33.1553 18.6667 28.0033 18.6667H18.6699V0Z" fill="#FF7262"/>
<path d="M37.3366 28.0001C37.3366 33.1521 33.1553 37.3334 28.0033 37.3334C22.8513 37.3334 18.6699 33.1521 18.6699 28.0001C18.6699 22.8481 22.8513 18.6667 28.0033 18.6667C33.1553 18.6667 37.3366 22.8481 37.3366 28.0001Z" fill="#1ABCFE"/>
</g>
<defs>
<clipPath id="clip0">
<rect width="37.3408" height="56" fill="white"/>
</clipPath>
</defs>
</svg>
