<svg width="49" height="50" viewBox="0 0 49 50" fill="none" xmlns="http://www.w3.org/2000/svg">
<g clip-path="url(#clip0)">
<path d="M48.7935 25.2161C48.7935 23.5404 48.6576 21.8557 48.3678 20.2073H25.1172V29.6995H38.4317C37.8792 32.761 36.1039 35.4692 33.5044 37.1901V43.3492H41.4479C46.1125 39.0559 48.7935 32.7157 48.7935 25.2161Z" fill="#4285F4"/>
<path d="M25.1177 49.2998C31.7659 49.2998 37.3725 47.1169 41.4574 43.349L33.514 37.1899C31.304 38.6935 28.4509 39.5449 25.1267 39.5449C18.6959 39.5449 13.2433 35.2063 11.2869 29.3733H3.08984V35.7226C7.27441 44.0464 15.7975 49.2998 25.1177 49.2998Z" fill="#34A853"/>
<path d="M11.2769 29.3734C10.2444 26.312 10.2444 22.9969 11.2769 19.9355V13.5862H3.08894C-0.407252 20.5514 -0.407252 28.7575 3.08894 35.7227L11.2769 29.3734Z" fill="#FBBC04"/>
<path d="M25.1177 9.75488C28.632 9.70054 32.0286 11.0229 34.5737 13.4503L41.6114 6.41266C37.1551 2.2281 31.2406 -0.0725079 25.1177 -4.78502e-05C15.7975 -4.78502e-05 7.27441 5.2533 3.08984 13.5862L11.2778 19.9355C13.2252 14.0934 18.6869 9.75488 25.1177 9.75488Z" fill="#EA4335"/>
</g>
<defs>
<clipPath id="clip0">
<rect width="48.3218" height="49.3" fill="white" transform="translate(0.470703)"/>
</clipPath>
</defs>
</svg>
