<svg width="167" height="57" viewBox="0 0 167 57" fill="none" xmlns="http://www.w3.org/2000/svg">
<g clip-path="url(#clip0)">
<path fill-rule="evenodd" clip-rule="evenodd" d="M160.813 56.3625H6.18746C2.77729 56.3625 0 53.186 0 49.3172V7.04531C0 3.16248 2.77729 0 6.18746 0H160.813C164.22 0 167 3.16248 167 7.04531V49.3172C167 53.186 164.22 56.3625 160.813 56.3625Z" fill="black"/>
<path fill-rule="evenodd" clip-rule="evenodd" d="M160.813 1.12795C163.673 1.12795 166.014 3.78795 166.014 7.04531V49.3172C166.014 52.5746 163.688 55.2346 160.813 55.2346H6.18746C3.32722 55.2346 0.986184 52.5746 0.986184 49.3172V7.04531C0.986184 3.78795 3.31186 1.12795 6.18746 1.12795H160.813ZM160.813 0H6.18746C2.77729 0 0 3.17654 0 7.04531V49.3172C0 53.2 2.77729 56.3625 6.18746 56.3625H160.813C164.22 56.3625 167 53.2 167 49.3172V7.04531C167 3.17654 164.22 0 160.813 0Z" fill="#A6A6A6"/>
<path d="M87.9733 19.4474C86.8581 19.4474 85.9181 19.0573 85.1746 18.2892C84.4373 17.5427 84.0256 16.5136 84.0441 15.4629C84.0441 14.3416 84.425 13.3923 85.1746 12.6396C85.915 11.8716 86.8551 11.4814 87.9702 11.4814C89.0731 11.4814 90.0132 11.8716 90.7689 12.6396C91.5185 13.4169 91.8995 14.3662 91.8995 15.4629C91.8872 16.5873 91.5062 17.5366 90.7689 18.2862C90.0286 19.0603 89.0885 19.4474 87.9733 19.4474ZM54.7914 19.4474C53.7008 19.4474 52.7546 19.0634 51.9805 18.3046C51.2124 17.5489 50.8223 16.5934 50.8223 15.466C50.8223 14.3385 51.2124 13.3831 51.9805 12.6273C52.7393 11.8685 53.6855 11.4845 54.7914 11.4845C55.3321 11.4845 55.8575 11.592 56.3613 11.8102C56.8559 12.0221 57.2583 12.3109 57.5563 12.6642L57.6301 12.7533L56.7975 13.5705L56.7115 13.4691C56.2415 12.91 55.6117 12.6366 54.7791 12.6366C54.0357 12.6366 53.3875 12.9008 52.8529 13.423C52.3153 13.9484 52.0419 14.6365 52.0419 15.469C52.0419 16.3016 52.3153 16.9897 52.8529 17.5151C53.3875 18.0373 54.0357 18.3015 54.7791 18.3015C55.5717 18.3015 56.2384 18.0373 56.7576 17.5151C57.0648 17.2079 57.2553 16.7778 57.3229 16.234H54.6532V15.085H58.4687L58.4841 15.1895C58.5118 15.383 58.5394 15.5827 58.5394 15.767C58.5394 16.8269 58.2199 17.684 57.5871 18.3169C56.8682 19.0665 55.9281 19.4474 54.7914 19.4474ZM98.91 19.2846H97.7334L94.1298 13.5183L94.1605 14.5566V19.2815H92.9839V11.6473H94.3264L94.3633 11.7057L97.7518 17.1372L97.7211 16.1019V11.6473H98.91V19.2846ZM79.1318 19.2846H77.9398V12.7963H75.8723V11.6473H81.1962V12.7963H79.1287V19.2846H79.1318ZM74.9015 19.2846H73.7126V11.6473H74.9015V19.2846ZM68.2196 19.2846H67.0307V12.7963H64.9632V11.6473H70.2872V12.7963H68.2196V19.2846ZM64.2105 19.2723H59.6515V11.6473H64.2105V12.7963H60.8435V14.8915H63.8818V16.0282H60.8435V18.1234H64.2105V19.2723ZM86.0471 17.4997C86.5786 18.0312 87.2237 18.2985 87.9733 18.2985C88.7444 18.2985 89.3742 18.0373 89.8995 17.4997C90.4218 16.9775 90.686 16.2924 90.686 15.466C90.686 14.6396 90.4218 13.9514 89.9026 13.4322C89.3711 12.9008 88.7229 12.6335 87.9764 12.6335C87.2053 12.6335 86.5755 12.8946 86.0532 13.4322C85.531 13.9545 85.2668 14.6396 85.2668 15.466C85.2668 16.2924 85.5279 16.9805 86.0471 17.4997Z" fill="white"/>
<path fill-rule="evenodd" clip-rule="evenodd" d="M83.9326 29.9475C81.0295 29.9475 78.6762 32.1502 78.6762 35.1885C78.6762 38.1992 81.0448 40.4295 83.9326 40.4295C86.8357 40.4295 89.189 38.2115 89.189 35.1885C89.189 32.1502 86.8357 29.9475 83.9326 29.9475ZM83.9326 38.3528C82.3443 38.3528 80.9772 37.0379 80.9772 35.1762C80.9772 33.2869 82.3474 31.9997 83.9326 31.9997C85.5209 31.9997 86.888 33.2869 86.888 35.1762C86.891 37.0502 85.5209 38.3528 83.9326 38.3528ZM72.4644 29.9475C69.5613 29.9475 67.208 32.1502 67.208 35.1885C67.208 38.1992 69.5766 40.4295 72.4644 40.4295C75.3675 40.4295 77.7208 38.2115 77.7208 35.1885C77.7208 32.1502 75.3645 29.9475 72.4644 29.9475ZM72.4644 38.3528C70.8761 38.3528 69.509 37.0379 69.509 35.1762C69.509 33.2869 70.8792 31.9997 72.4644 31.9997C74.0527 31.9997 75.4198 33.2869 75.4198 35.1762C75.4198 37.0502 74.0527 38.3528 72.4644 38.3528ZM58.8181 31.5481V33.7661H64.142C63.9792 35.0103 63.5676 35.9289 62.9378 36.5587C62.1575 37.339 60.9532 38.1869 58.8304 38.1869C55.5586 38.1869 52.9995 35.5449 52.9995 32.2731C52.9995 29.0013 55.5586 26.3593 58.8304 26.3593C60.5968 26.3593 61.884 27.0566 62.8395 27.9475L64.4124 26.3746C63.0852 25.1028 61.3188 24.1289 58.8427 24.1289C54.3543 24.1289 50.5879 27.7847 50.5879 32.2608C50.5879 36.7491 54.3512 40.3927 58.8427 40.3927C61.2666 40.3927 63.0852 39.6001 64.523 38.107C65.9884 36.6416 66.4523 34.5741 66.4523 32.9059C66.4523 32.3867 66.4123 31.9198 66.3294 31.5235H58.815C58.8181 31.5204 58.8181 31.5481 58.8181 31.5481ZM114.635 33.2746C114.196 32.098 112.869 29.9352 110.147 29.9352C107.45 29.9352 105.207 32.058 105.207 35.1762C105.207 38.1193 107.425 40.4172 110.408 40.4172C112.804 40.4172 114.199 38.9518 114.774 38.0917L112.995 36.8997C112.405 37.7752 111.585 38.3497 110.42 38.3497C109.244 38.3497 108.42 37.8152 107.874 36.7614L114.881 33.8583C114.881 33.8614 114.635 33.2746 114.635 33.2746ZM107.49 35.0257C107.434 33.0012 109.062 31.972 110.227 31.972C111.145 31.972 111.91 32.4236 112.171 33.081L107.49 35.0257ZM101.797 40.1039H104.098V24.7065H101.797V40.1039ZM98.0182 31.1118H97.9353C97.4161 30.4943 96.4299 29.9352 95.1704 29.9352C92.556 29.9352 90.1475 32.2362 90.1475 35.1916C90.1475 38.1347 92.5437 40.408 95.1704 40.408C96.4146 40.408 97.4161 39.8458 97.9353 39.216H98.0182V39.9687C98.0182 41.9687 96.9491 43.047 95.2257 43.047C93.8156 43.047 92.94 42.0332 92.5837 41.1853L90.5837 42.0209C91.1582 43.4033 92.6912 45.1145 95.2226 45.1145C97.9199 45.1145 100.206 43.5262 100.206 39.6523V30.2486H98.0305V31.1118H98.0182ZM95.3762 38.3528C93.7879 38.3528 92.4608 37.0256 92.4608 35.1916C92.4608 33.3422 93.7879 32.0027 95.3762 32.0027C96.9491 32.0027 98.1688 33.3575 98.1688 35.1916C98.1841 37.0256 96.9522 38.3528 95.3762 38.3528ZM125.409 24.7065H119.907V40.1039H122.208V34.273H125.412C127.959 34.273 130.463 32.4267 130.463 29.4959C130.463 26.5651 127.968 24.7065 125.409 24.7065ZM125.477 32.1225H122.205V26.8385H125.477C127.2 26.8385 128.174 28.2609 128.174 29.4805C128.174 30.6879 127.188 32.1225 125.477 32.1225ZM139.685 29.9198C138.014 29.9198 136.291 30.6602 135.578 32.2731L137.618 33.121C138.057 32.2731 138.862 31.9843 139.713 31.9843C140.905 31.9843 142.109 32.697 142.137 33.9689V34.1317C141.725 33.8982 140.822 33.5419 139.741 33.5419C137.538 33.5419 135.304 34.7461 135.304 37.0041C135.304 39.0717 137.111 40.3988 139.123 40.3988C140.668 40.3988 141.519 39.7014 142.051 38.8935H142.134V40.0855H144.352V34.187C144.352 31.4405 142.312 29.9198 139.685 29.9198ZM139.396 38.3528C138.644 38.3528 137.59 37.9841 137.59 37.0379C137.59 35.8459 138.905 35.3943 140.026 35.3943C141.04 35.3943 141.519 35.6125 142.121 35.9135C141.956 37.296 140.788 38.3405 139.396 38.3528ZM152.444 30.2486L149.802 36.9273H149.719L146.982 30.2486H144.505L148.613 39.5847L146.272 44.7735H148.668L154.987 30.2486H152.444ZM131.732 40.1039H134.033V24.7065H131.732V40.1039Z" fill="white"/>
<path fill-rule="evenodd" clip-rule="evenodd" d="M12.8532 12.4277C12.4968 12.8117 12.291 13.3985 12.291 14.1665V41.4069C12.291 42.1749 12.4968 42.7617 12.8655 43.1304L12.9607 43.2133L28.223 27.9511V27.6101L12.9484 12.3447L12.8532 12.4277Z" fill="url(#paint0_linear)"/>
<path fill-rule="evenodd" clip-rule="evenodd" d="M33.2995 33.053L28.209 27.9625V27.6061L33.2995 22.5156L33.4101 22.5832L39.4314 26.0055C41.1549 26.9763 41.1549 28.58 39.4314 29.5631L33.4101 32.9854L33.2995 33.053Z" fill="url(#paint1_linear)"/>
<path fill-rule="evenodd" clip-rule="evenodd" d="M33.4121 32.9862L28.211 27.7852L12.8535 43.1426C13.4157 43.7448 14.3589 43.8124 15.4126 43.2256L33.4121 32.9862Z" fill="url(#paint2_linear)"/>
<path fill-rule="evenodd" clip-rule="evenodd" d="M33.4121 22.5845L15.4126 12.3605C14.3589 11.7584 13.4126 11.8413 12.8535 12.4435L28.211 27.7856L33.4121 22.5845Z" fill="url(#paint3_linear)"/>
<path opacity="0.2" fill-rule="evenodd" clip-rule="evenodd" d="M33.3009 32.875L15.4243 43.0314C14.4259 43.6059 13.535 43.5659 12.9605 43.0437L12.8652 43.1389L12.9605 43.2219C13.535 43.7411 14.4259 43.7841 15.4243 43.2096L33.4238 32.9856L33.3009 32.875Z" fill="black"/>
<path opacity="0.12" fill-rule="evenodd" clip-rule="evenodd" d="M39.4325 29.3857L33.2852 32.8756L33.3958 32.9862L39.4171 29.5639C40.2804 29.0724 40.7043 28.4272 40.7043 27.7852C40.6521 28.375 40.2128 28.9341 39.4325 29.3857Z" fill="black"/>
<path opacity="0.25" fill-rule="evenodd" clip-rule="evenodd" d="M15.4123 12.5377L39.4331 26.184C40.2134 26.6233 40.6528 27.1978 40.7203 27.7846C40.7203 27.1425 40.2964 26.4974 39.4331 26.0058L15.4123 12.3595C13.6888 11.3734 12.291 12.1967 12.291 14.1659V14.3441C12.291 12.3718 13.6888 11.5638 15.4123 12.5377Z" fill="white"/>
</g>
<defs>
<linearGradient id="paint0_linear" x1="26.8541" y1="13.8728" x2="2.40634" y2="20.3869" gradientUnits="userSpaceOnUse">
<stop stop-color="#00A0FF"/>
<stop offset="0.007" stop-color="#00A1FF"/>
<stop offset="0.26" stop-color="#00BEFF"/>
<stop offset="0.512" stop-color="#00D2FF"/>
<stop offset="0.76" stop-color="#00DFFF"/>
<stop offset="1" stop-color="#00E3FF"/>
</linearGradient>
<linearGradient id="paint1_linear" x1="41.6788" y1="27.7842" x2="11.8703" y2="27.7842" gradientUnits="userSpaceOnUse">
<stop stop-color="#FFE000"/>
<stop offset="0.409" stop-color="#FFBD00"/>
<stop offset="0.775" stop-color="#FFA500"/>
<stop offset="1" stop-color="#FF9C00"/>
</linearGradient>
<linearGradient id="paint2_linear" x1="30.5837" y1="30.6155" x2="10.9575" y2="63.6478" gradientUnits="userSpaceOnUse">
<stop stop-color="#FF3A44"/>
<stop offset="1" stop-color="#C31162"/>
</linearGradient>
<linearGradient id="paint3_linear" x1="8.98646" y1="3.36735" x2="17.7424" y2="18.1204" gradientUnits="userSpaceOnUse">
<stop stop-color="#32A071"/>
<stop offset="0.069" stop-color="#2DA771"/>
<stop offset="0.476" stop-color="#15CF74"/>
<stop offset="0.801" stop-color="#06E775"/>
<stop offset="1" stop-color="#00F076"/>
</linearGradient>
<clipPath id="clip0">
<rect width="167" height="56.3625" fill="white"/>
</clipPath>
</defs>
</svg>
