<?xml version="1.0" encoding="UTF-8"?>
<svg xmlns="http://www.w3.org/2000/svg" xmlns:xlink="http://www.w3.org/1999/xlink" width="50px" height="50px" viewBox="0 0 50 50" version="1.1">
<defs>
<radialGradient id="radial0" gradientUnits="userSpaceOnUse" cx="158.429" cy="578.088" fx="158.429" fy="578.088" r="65" gradientTransform="matrix(0,-0.750727,0.698426,0,-390.290446,172.345535)">
<stop offset="0" style="stop-color:rgb(100%,86.666667%,33.333333%);stop-opacity:1;"/>
<stop offset="0.1" style="stop-color:rgb(100%,86.666667%,33.333333%);stop-opacity:1;"/>
<stop offset="0.5" style="stop-color:rgb(100%,32.941176%,24.313725%);stop-opacity:1;"/>
<stop offset="1" style="stop-color:rgb(78.431373%,21.568627%,67.058824%);stop-opacity:1;"/>
</radialGradient>
<radialGradient id="radial1" gradientUnits="userSpaceOnUse" cx="147.694" cy="473.455" fx="147.694" fy="473.455" r="65" gradientTransform="matrix(0.0658844,0.329051,-1.356701,0.271651,624.735614,-173.286794)">
<stop offset="0" style="stop-color:rgb(21.568627%,44.313725%,78.431373%);stop-opacity:1;"/>
<stop offset="0.128" style="stop-color:rgb(21.568627%,44.313725%,78.431373%);stop-opacity:1;"/>
<stop offset="1" style="stop-color:rgb(40%,0%,100%);stop-opacity:0;"/>
</radialGradient>
</defs>
<g id="surface1">
<path style=" stroke:none;fill-rule:nonzero;fill:url(#radial0);" d="M 25.011719 0.378906 C 14.730469 0.378906 11.726562 0.390625 11.140625 0.4375 C 9.03125 0.613281 7.71875 0.945312 6.289062 1.660156 C 5.183594 2.207031 4.316406 2.839844 3.457031 3.730469 C 1.894531 5.351562 0.949219 7.347656 0.605469 9.71875 C 0.4375 10.871094 0.390625 11.105469 0.378906 16.988281 C 0.375 18.945312 0.378906 21.527344 0.378906 24.988281 C 0.378906 35.261719 0.390625 38.265625 0.441406 38.847656 C 0.613281 40.902344 0.933594 42.191406 1.617188 43.605469 C 2.917969 46.308594 5.40625 48.339844 8.339844 49.097656 C 9.355469 49.359375 10.476562 49.503906 11.914062 49.570312 C 12.523438 49.597656 18.738281 49.617188 24.960938 49.617188 C 31.179688 49.617188 37.398438 49.609375 37.992188 49.578125 C 39.660156 49.5 40.628906 49.371094 41.699219 49.09375 C 44.648438 48.332031 47.089844 46.332031 48.421875 43.589844 C 49.089844 42.210938 49.429688 40.871094 49.582031 38.925781 C 49.613281 38.5 49.628906 31.738281 49.628906 24.980469 C 49.628906 18.226562 49.613281 11.476562 49.582031 11.050781 C 49.425781 9.074219 49.085938 7.742188 48.394531 6.339844 C 47.828125 5.1875 47.203125 4.328125 46.289062 3.449219 C 44.660156 1.894531 42.667969 0.949219 40.292969 0.605469 C 39.140625 0.4375 38.914062 0.390625 33.027344 0.378906 Z M 25.011719 0.378906 "/>
<path style=" stroke:none;fill-rule:nonzero;fill:url(#radial1);" d="M 25.011719 0.378906 C 14.730469 0.378906 11.726562 0.390625 11.140625 0.4375 C 9.03125 0.613281 7.71875 0.945312 6.289062 1.660156 C 5.183594 2.207031 4.316406 2.839844 3.457031 3.730469 C 1.894531 5.351562 0.949219 7.347656 0.605469 9.71875 C 0.4375 10.871094 0.390625 11.105469 0.378906 16.988281 C 0.375 18.945312 0.378906 21.527344 0.378906 24.988281 C 0.378906 35.261719 0.390625 38.265625 0.441406 38.847656 C 0.613281 40.902344 0.933594 42.191406 1.617188 43.605469 C 2.917969 46.308594 5.40625 48.339844 8.339844 49.097656 C 9.355469 49.359375 10.476562 49.503906 11.914062 49.570312 C 12.523438 49.597656 18.738281 49.617188 24.960938 49.617188 C 31.179688 49.617188 37.398438 49.609375 37.992188 49.578125 C 39.660156 49.5 40.628906 49.371094 41.699219 49.09375 C 44.648438 48.332031 47.089844 46.332031 48.421875 43.589844 C 49.089844 42.210938 49.429688 40.871094 49.582031 38.925781 C 49.613281 38.5 49.628906 31.738281 49.628906 24.980469 C 49.628906 18.226562 49.613281 11.476562 49.582031 11.050781 C 49.425781 9.074219 49.085938 7.742188 48.394531 6.339844 C 47.828125 5.1875 47.203125 4.328125 46.289062 3.449219 C 44.660156 1.894531 42.667969 0.949219 40.292969 0.605469 C 39.140625 0.4375 38.914062 0.390625 33.027344 0.378906 Z M 25.011719 0.378906 "/>
<path style=" stroke:none;fill-rule:nonzero;fill:rgb(100%,100%,100%);fill-opacity:1;" d="M 25 6.820312 C 20.0625 6.820312 19.441406 6.839844 17.503906 6.929688 C 15.570312 7.015625 14.246094 7.324219 13.089844 7.773438 C 11.894531 8.238281 10.882812 8.859375 9.871094 9.871094 C 8.859375 10.878906 8.238281 11.894531 7.773438 13.089844 C 7.320312 14.246094 7.015625 15.566406 6.925781 17.503906 C 6.839844 19.441406 6.816406 20.0625 6.816406 25 C 6.816406 29.9375 6.839844 30.554688 6.929688 32.496094 C 7.015625 34.429688 7.324219 35.75 7.773438 36.90625 C 8.238281 38.101562 8.859375 39.117188 9.871094 40.128906 C 10.878906 41.140625 11.894531 41.761719 13.089844 42.226562 C 14.246094 42.675781 15.566406 42.984375 17.503906 43.070312 C 19.441406 43.160156 20.0625 43.179688 25 43.179688 C 29.9375 43.179688 30.554688 43.160156 32.492188 43.070312 C 34.429688 42.984375 35.75 42.675781 36.910156 42.226562 C 38.105469 41.761719 39.117188 41.140625 40.128906 40.128906 C 41.136719 39.117188 41.757812 38.101562 42.226562 36.90625 C 42.671875 35.75 42.980469 34.429688 43.070312 32.496094 C 43.15625 30.554688 43.179688 29.9375 43.179688 25 C 43.179688 20.0625 43.15625 19.441406 43.070312 17.503906 C 42.980469 15.566406 42.671875 14.246094 42.226562 13.089844 C 41.757812 11.894531 41.136719 10.878906 40.128906 9.871094 C 39.117188 8.859375 38.105469 8.238281 36.90625 7.773438 C 35.75 7.324219 34.425781 7.015625 32.492188 6.929688 C 30.550781 6.839844 29.933594 6.820312 24.996094 6.820312 Z M 23.371094 10.09375 C 23.855469 10.09375 24.394531 10.09375 25 10.09375 C 29.855469 10.09375 30.429688 10.113281 32.347656 10.199219 C 34.121094 10.28125 35.082031 10.578125 35.722656 10.824219 C 36.570312 11.15625 37.175781 11.550781 37.8125 12.1875 C 38.449219 12.820312 38.84375 13.429688 39.171875 14.277344 C 39.421875 14.917969 39.71875 15.878906 39.800781 17.652344 C 39.886719 19.566406 39.90625 20.144531 39.90625 24.996094 C 39.90625 29.847656 39.886719 30.421875 39.800781 32.339844 C 39.71875 34.113281 39.421875 35.074219 39.171875 35.714844 C 38.84375 36.5625 38.449219 37.167969 37.8125 37.804688 C 37.175781 38.441406 36.570312 38.835938 35.722656 39.164062 C 35.082031 39.414062 34.121094 39.710938 32.347656 39.789062 C 30.429688 39.878906 29.855469 39.894531 25 39.894531 C 20.144531 39.894531 19.570312 39.878906 17.652344 39.789062 C 15.882812 39.707031 14.917969 39.410156 14.277344 39.164062 C 13.429688 38.832031 12.824219 38.441406 12.1875 37.804688 C 11.550781 37.167969 11.15625 36.5625 10.828125 35.714844 C 10.578125 35.074219 10.28125 34.113281 10.199219 32.339844 C 10.113281 30.421875 10.097656 29.847656 10.097656 24.992188 C 10.097656 20.136719 10.113281 19.5625 10.199219 17.648438 C 10.28125 15.875 10.578125 14.910156 10.828125 14.269531 C 11.15625 13.421875 11.550781 12.816406 12.1875 12.179688 C 12.824219 11.542969 13.429688 11.148438 14.277344 10.820312 C 14.917969 10.570312 15.882812 10.273438 17.652344 10.191406 C 19.332031 10.117188 19.980469 10.09375 23.371094 10.089844 Z M 34.707031 13.113281 C 33.5 13.113281 32.523438 14.089844 32.523438 15.296875 C 32.523438 16.5 33.5 17.476562 34.707031 17.476562 C 35.910156 17.476562 36.886719 16.5 36.886719 15.296875 C 36.886719 14.089844 35.910156 13.113281 34.707031 13.113281 Z M 25 15.664062 C 19.84375 15.664062 15.664062 19.84375 15.664062 25 C 15.664062 30.15625 19.84375 34.335938 25 34.335938 C 30.15625 34.335938 34.335938 30.15625 34.335938 25 C 34.335938 19.84375 30.15625 15.664062 25 15.664062 Z M 25 18.941406 C 28.347656 18.941406 31.0625 21.652344 31.0625 25 C 31.0625 28.347656 28.347656 31.058594 25 31.058594 C 21.652344 31.058594 18.941406 28.347656 18.941406 25 C 18.941406 21.652344 21.652344 18.941406 25 18.941406 Z M 25 18.941406 "/>
</g>
</svg>
