<svg width="72" height="72" viewBox="0 0 72 72" fill="none" xmlns="http://www.w3.org/2000/svg">
<path fill-rule="evenodd" clip-rule="evenodd" d="M42.6903 13.6026L17.7156 15.4404C15.7018 15.6147 15 16.9275 15 18.5013V45.7974C15 47.0238 15.4374 48.072 16.4895 49.473L22.3604 57.0845C23.3247 58.3101 24.201 58.5723 26.0424 58.4846L55.0453 56.7345C57.4983 56.5604 58.2 55.4222 58.2 53.4975V22.7887C58.2 21.7938 57.8061 21.5064 56.6448 20.6592C56.5809 20.6127 56.5146 20.5644 56.446 20.5141L48.4738 14.9151C46.5462 13.5158 45.7572 13.3398 42.6903 13.6026ZM26.7 22.285C24.3321 22.4448 23.794 22.4811 22.4493 21.3894L19.0297 18.6774C18.681 18.3267 18.8559 17.8893 19.7316 17.8024L43.7419 16.0525C45.7567 15.8772 46.8081 16.5783 47.5971 17.1903L51.7153 20.1652C51.8907 20.2524 52.3281 20.7766 51.802 20.7766L27.0057 22.2645L26.7 22.285ZM23.938 53.2346V27.164C23.938 26.0268 24.2886 25.5015 25.3395 25.4131L53.8173 23.7514C54.7833 23.664 55.2207 24.2769 55.2207 25.4131V51.309C55.2207 52.4472 55.0449 53.4108 53.467 53.4975L26.216 55.0733C24.6389 55.16 23.938 54.6357 23.938 53.2346ZM50.8404 28.5624C51.0151 29.3506 50.8404 30.138 50.0502 30.2267L48.7371 30.4881V49.7351C47.5971 50.3474 46.5459 50.6975 45.6699 50.6975C44.2674 50.6975 43.9161 50.2596 42.8656 48.948L34.2769 35.475V48.5106L36.9946 49.1234C36.9946 49.1234 36.9946 50.6975 34.8021 50.6975L28.7574 51.0479C28.5817 50.6975 28.7574 49.8233 29.3704 49.6481L30.9479 49.2113V31.9758L28.7577 31.8005C28.582 31.0124 29.0195 29.8759 30.2472 29.7877L36.7318 29.351L45.6699 42.9993V30.9255L43.3911 30.6642C43.216 29.7006 43.9161 29.001 44.7925 28.9142L50.8404 28.5624Z" fill="black"/>
</svg>
