<?xml version="1.0" encoding="UTF-8"?>
<svg xmlns="http://www.w3.org/2000/svg" xmlns:xlink="http://www.w3.org/1999/xlink" width="50px" height="50px" viewBox="0 0 50 50" version="1.1">
<g id="surface1">
<path style=" stroke:none;fill-rule:nonzero;fill:rgb(100%,27.058824%,0%);fill-opacity:1;" d="M 49.667969 24.972656 C 49.667969 38.613281 38.613281 49.667969 24.972656 49.667969 C 11.332031 49.667969 0.273438 38.613281 0.273438 24.972656 C 0.273438 11.332031 11.332031 0.273438 24.972656 0.273438 C 38.613281 0.273438 49.667969 11.332031 49.667969 24.972656 Z M 49.667969 24.972656 "/>
<path style=" stroke:none;fill-rule:nonzero;fill:rgb(100%,100%,100%);fill-opacity:1;" d="M 41.441406 24.972656 C 41.371094 22.984375 39.699219 21.429688 37.703125 21.496094 C 36.820312 21.527344 35.980469 21.890625 35.339844 22.496094 C 32.53125 20.582031 29.226562 19.53125 25.832031 19.460938 L 27.433594 11.753906 L 32.71875 12.867188 C 32.867188 14.222656 34.082031 15.203125 35.4375 15.058594 C 36.796875 14.910156 37.777344 13.695312 37.628906 12.339844 C 37.484375 10.980469 36.265625 10 34.910156 10.144531 C 34.128906 10.226562 33.429688 10.679688 33.042969 11.355469 L 26.992188 10.144531 C 26.582031 10.054688 26.167969 10.3125 26.078125 10.730469 C 26.078125 10.734375 26.078125 10.734375 26.078125 10.742188 L 24.253906 19.3125 C 20.816406 19.367188 17.46875 20.421875 14.621094 22.351562 C 13.171875 20.988281 10.886719 21.054688 9.527344 22.511719 C 8.164062 23.960938 8.230469 26.242188 9.6875 27.605469 C 9.96875 27.871094 10.292969 28.097656 10.65625 28.257812 C 10.632812 28.621094 10.632812 28.980469 10.65625 29.34375 C 10.65625 34.875 17.101562 39.375 25.050781 39.375 C 33 39.375 39.445312 34.878906 39.445312 29.34375 C 39.472656 28.980469 39.472656 28.621094 39.445312 28.257812 C 40.6875 27.636719 41.46875 26.359375 41.441406 24.972656 Z M 16.746094 27.445312 C 16.746094 26.082031 17.855469 24.972656 19.21875 24.972656 C 20.582031 24.972656 21.695312 26.082031 21.695312 27.445312 C 21.695312 28.808594 20.582031 29.921875 19.21875 29.921875 C 17.851562 29.90625 16.746094 28.808594 16.746094 27.445312 Z M 31.09375 34.335938 L 31.09375 34.234375 C 29.335938 35.554688 27.1875 36.230469 24.988281 36.140625 C 22.792969 36.230469 20.644531 35.554688 18.886719 34.234375 C 18.65625 33.953125 18.695312 33.53125 18.980469 33.296875 C 19.226562 33.09375 19.574219 33.09375 19.828125 33.296875 C 21.3125 34.382812 23.125 34.933594 24.964844 34.851562 C 26.808594 34.949219 28.625 34.417969 30.128906 33.34375 C 30.398438 33.082031 30.839844 33.089844 31.105469 33.359375 C 31.367188 33.628906 31.363281 34.070312 31.09375 34.335938 Z M 30.753906 30.097656 C 30.710938 30.097656 30.675781 30.097656 30.632812 30.097656 L 30.652344 30.007812 C 29.289062 30.007812 28.175781 28.894531 28.175781 27.53125 C 28.175781 26.167969 29.289062 25.058594 30.652344 25.058594 C 32.015625 25.058594 33.125 26.167969 33.125 27.53125 C 33.179688 28.894531 32.117188 30.042969 30.753906 30.097656 Z M 30.753906 30.097656 "/>
</g>
</svg>
