<svg width="64" height="64" viewBox="0 0 64 64" fill="none" xmlns="http://www.w3.org/2000/svg">
<path fill-rule="evenodd" clip-rule="evenodd" d="M18.0988 12.0894L31.9504 10.625L45.8019 12.0894L56.5257 26.4851L31.9504 55.1029L7.375 26.4851L18.0988 12.0894Z" fill="#FDB300"/>
<path fill-rule="evenodd" clip-rule="evenodd" d="M17.3293 26.4851L31.9504 55.1029L7.375 26.4851H17.3293Z" fill="#EA6C00"/>
<path fill-rule="evenodd" clip-rule="evenodd" d="M46.5711 26.4851L31.95 55.1029L56.5254 26.4851H46.5711Z" fill="#EA6C00"/>
<path fill-rule="evenodd" clip-rule="evenodd" d="M17.3301 26.4851H46.5723L31.9512 55.1029L17.3301 26.4851Z" fill="#FDAD00"/>
<path fill-rule="evenodd" clip-rule="evenodd" d="M31.9512 10.625L18.0996 12.0894L17.3301 26.4851L31.9512 10.625Z" fill="#FDD231"/>
<path fill-rule="evenodd" clip-rule="evenodd" d="M31.9511 10.625L45.8028 12.0894L46.5723 26.4851L31.9511 10.625Z" fill="#FDD231"/>
<path fill-rule="evenodd" clip-rule="evenodd" d="M56.5254 26.4851L45.8015 12.0894L46.5711 26.4851H56.5254Z" fill="#FDAD00"/>
<path fill-rule="evenodd" clip-rule="evenodd" d="M7.375 26.4851L18.0988 12.0894L17.3293 26.4851H7.375Z" fill="#FDAD00"/>
<path fill-rule="evenodd" clip-rule="evenodd" d="M31.9512 10.625L17.3301 26.4851H46.5723L31.9512 10.625Z" fill="#FEEEB7"/>
</svg>
