<?xml version="1.0" encoding="UTF-8"?><!DOCTYPE svg PUBLIC "-//W3C//DTD SVG 1.1//EN" "http://www.w3.org/Graphics/SVG/1.1/DTD/svg11.dtd"><svg xmlns="http://www.w3.org/2000/svg"><defs>
        <clipPath id="a">
            <path d="M0 0h16v16H0z"/>
        </clipPath>
    </defs><symbol id="icon-arrow-down" viewBox="0 0 16 10">
    <path fill-rule="evenodd" clip-rule="evenodd" d="M6.94 9.31a1.5 1.5 0 0 0 2.12 0l6.5-6.5A1.5 1.5 0 0 0 13.44.69L8 6.128 2.56.689A1.5 1.5 0 0 0 .44 2.811l6.5 6.5z"/>
</symbol><symbol id="icon-arrow-next" viewBox="0 0 40 16">
    <path d="M30.793 15.707a1 1 0 0 1-.083-1.32l.083-.094L36.086 9H.5V7h35.586l-5.293-5.293a1 1 0 0 1-.083-1.32l.083-.094a1 1 0 0 1 1.32-.083l.094.083 7 7a1 1 0 0 1 .083 1.32l-.083.094-7 7a1 1 0 0 1-1.414 0z"/>
</symbol><symbol id="icon-arrow-prev" viewBox="0 0 40 16">
    <path d="M9.207.293a1 1 0 0 1 .083 1.32l-.083.094L3.914 7H39.5v2H3.914l5.293 5.293a1 1 0 0 1 .083 1.32l-.083.094a1 1 0 0 1-1.32.083l-.094-.083-7-7a1 1 0 0 1-.083-1.32l.083-.094 7-7a1 1 0 0 1 1.414 0z"/>
</symbol><symbol id="icon-dark" viewBox="0 0 24 24">
    <path d="M8 2.3c.4-.1.7 0 1 .3s.4.7.3 1C9.1 4.4 9 5.2 9 6a8.96 8.96 0 0 0 9 9c.8 0 1.6-.1 2.4-.3a.96.96 0 0 1 .9.2c.3.3.4.7.3 1C20.3 20.7 15.9 24 11 24A10.97 10.97 0 0 1 0 13C0 8.1 3.3 3.7 8 2.3zM21 6a.94.94 0 0 1 1 1v1h1a.94.94 0 0 1 1 1 .94.94 0 0 1-1 1h-1v1a.94.94 0 0 1-1 1 .94.94 0 0 1-1-1v-1h-1a.94.94 0 0 1-1-1 .94.94 0 0 1 1-1h1V7a.94.94 0 0 1 1-1zm-6-6a.94.94 0 0 1 1 1v1h1a.94.94 0 0 1 1 1 .94.94 0 0 1-1 1h-1v1a.94.94 0 0 1-1 1 .94.94 0 0 1-1-1V4h-1a.94.94 0 0 1-1-1 .94.94 0 0 1 1-1h1V1a.94.94 0 0 1 1-1z"/>
</symbol><symbol id="icon-facebook" viewBox="0 0 16 16">
    <g clip-path="url(#a)">
        <path d="M16 8.048a8.001 8.001 0 1 0-9.25 7.9V10.36H4.719V8.048H6.75V6.285a2.822 2.822 0 0 1 3.021-3.112c.6.008 1.199.06 1.791.156v1.97h-1.008a1.155 1.155 0 0 0-1.3 1.25v1.5h2.219l-.355 2.313H9.25v5.59A8 8 0 0 0 16 8.049z"/>
    </g>
    
</symbol><symbol id="icon-instagram" viewBox="0 0 16 16">
    <path d="M12.146 4.852a.96.96 0 1 0 0-1.92.96.96 0 0 0 0 1.92z"/>
    <path d="M8 12c-2.206 0-4-1.794-4-4s1.794-4 4-4 4 1.794 4 4-1.794 4-4 4zm0-6c-1.103 0-2 .897-2 2s.897 2 2 2 2-.897 2-2-.897-2-2-2z"/>
    <path d="M12 16H4c-2.056 0-4-1.944-4-4V4c0-2.056 1.944-4 4-4h8c2.056 0 4 1.944 4 4v8c0 2.056-1.944 4-4 4zM4 2c-.935 0-2 1.065-2 2v8c0 .953 1.047 2 2 2h8c.935 0 2-1.065 2-2V4c0-.935-1.065-2-2-2H4z"/>
</symbol><symbol id="icon-light" viewBox="0 0 24 23">
    <path d="M12 5a7 7 0 0 1 7 7 6.993 6.993 0 0 1-3.932 6.286l-.068.031V22a1 1 0 0 1-.883.993L14 23h-4a1 1 0 0 1-1-1v-3.682l-.068-.032a6.994 6.994 0 0 1-3.927-6.016L5 12a7 7 0 0 1 7-7zm0 2a5 5 0 0 0-5 5 4.994 4.994 0 0 0 3.334 4.708 1 1 0 0 1 .666.943V21h2v-3.349a1 1 0 0 1 .551-.893l.116-.049A4.997 4.997 0 0 0 17 12a5 5 0 0 0-5-5zm-9 4a1 1 0 0 1 .117 1.993L3 13H1a1 1 0 0 1-.117-1.993L1 11h2zm20 0a1 1 0 0 1 .117 1.993L23 13h-2a1 1 0 0 1-.117-1.993L21 11h2zM4.836 3.431l.094.083 1.414 1.414a1 1 0 0 1-1.32 1.497l-.094-.083-1.414-1.414a1 1 0 0 1 1.32-1.497zm15.649.083a1 1 0 0 1 .083 1.32l-.083.094-1.414 1.414a1 1 0 0 1-1.497-1.32l.083-.094 1.414-1.414a1 1 0 0 1 1.414 0zM12 0a1 1 0 0 1 .993.883L13 1v2a1 1 0 0 1-1.993.117L11 3V1a1 1 0 0 1 1-1z"/>
</symbol><symbol id="icon-play" viewBox="0 0 8 12">
    <path d="M8 6a.78.78 0 0 0-.285-.615L1.05.135a.607.607 0 0 0-.69-.05A.767.767 0 0 0 0 .748v10.502c0 .28.138.536.359.665.22.127.486.11.69-.051l6.666-5.25A.778.778 0 0 0 8 6V6z"/>
</symbol><symbol id="icon-twitter" viewBox="0 0 16 16">
    <path d="M16 3c-.6.3-1.2.4-1.9.5.7-.4 1.2-1 1.4-1.8-.6.4-1.3.6-2.1.8-.6-.6-1.5-1-2.4-1-1.7 0-3.2 1.5-3.2 3.3 0 .3 0 .5.1.7-2.7-.1-5.2-1.4-6.8-3.4-.3.5-.4 1-.4 1.7 0 1.1.6 2.1 1.5 2.7-.5 0-1-.2-1.5-.4C.7 7.7 1.8 9 3.3 9.3c-.3.1-.6.1-.9.1-.2 0-.4 0-.6-.1.4 1.3 1.6 2.3 3.1 2.3-1.1.9-2.5 1.4-4.1 1.4H0c1.5.9 3.2 1.5 5 1.5 6 0 9.3-5 9.3-9.3v-.4C15 4.3 15.6 3.7 16 3z"/>
</symbol></svg>