<svg width="25" height="25" viewBox="0 0 25 25" fill="none" xmlns="http://www.w3.org/2000/svg">
<g clip-path="url(#clip0)">
<path d="M13.246 2.42088L16.356 8.72088L23.31 9.73288C23.4636 9.75503 23.6079 9.81974 23.7266 9.9197C23.8453 10.0197 23.9337 10.1509 23.9817 10.2984C24.0296 10.446 24.0353 10.6041 23.9981 10.7548C23.9609 10.9054 23.8822 11.0426 23.771 11.1509L18.738 16.0509L19.926 22.9769C19.9522 23.1299 19.9351 23.2871 19.8766 23.4309C19.8181 23.5746 19.7205 23.6992 19.595 23.7904C19.4694 23.8816 19.3208 23.9359 19.166 23.9472C19.0112 23.9584 18.8564 23.9261 18.719 23.8539L12.5 20.5889L6.27997 23.8569C6.14245 23.9287 5.98759 23.9608 5.83285 23.9493C5.6781 23.9379 5.52963 23.8835 5.40415 23.7922C5.27867 23.701 5.18118 23.5765 5.12267 23.4327C5.06415 23.289 5.04694 23.1318 5.07297 22.9789L6.26097 16.0569L1.22797 11.1569C1.11675 11.0486 1.03807 10.9114 1.00084 10.7608C0.963602 10.6101 0.969297 10.452 1.01728 10.3044C1.06526 10.1569 1.15361 10.0257 1.27232 9.9257C1.39103 9.82574 1.53536 9.76103 1.68897 9.73888L8.64296 8.72188L11.753 2.42188C11.8218 2.2827 11.9281 2.16553 12.0599 2.08356C12.1918 2.0016 12.3439 1.95811 12.4992 1.95801C12.6544 1.9579 12.8066 2.00119 12.9385 2.08297C13.0705 2.16476 13.177 2.2818 13.246 2.42088Z" fill="#FF6E30"/>
</g>
<defs>
<clipPath id="clip0">
<rect width="24" height="24" fill="white" transform="translate(0.5 0.957031)"/>
</clipPath>
</defs>
</svg>
