<?xml version="1.0" encoding="UTF-8"?>
<svg xmlns="http://www.w3.org/2000/svg" xmlns:xlink="http://www.w3.org/1999/xlink" width="50px" height="50px" viewBox="0 0 50 50" version="1.1">
<g id="surface1">
<path style=" stroke:none;fill-rule:evenodd;fill:rgb(10.196078%,7.058824%,12.156863%);fill-opacity:1;" d="M 10.871094 0 L 39.128906 0 C 45.109375 0 50 4.890625 50 10.871094 L 50 39.128906 C 50 45.109375 45.109375 50 39.128906 50 L 10.871094 50 C 4.890625 50 0 45.109375 0 39.128906 L 0 10.871094 C 0 4.890625 4.890625 0 10.871094 0 Z M 30.019531 10.597656 C 30.070312 11.027344 30.144531 11.445312 30.238281 11.847656 L 31.183594 11.847656 C 31.359375 13.347656 31.785156 14.714844 32.453125 15.851562 C 33.546875 16.863281 34.972656 17.488281 36.695312 17.597656 L 36.695312 18.980469 C 37.015625 19.046875 37.347656 19.089844 37.695312 19.113281 L 37.695312 23.566406 C 35.46875 23.785156 33.519531 23.054688 31.246094 21.6875 L 31.597656 29.3125 C 31.597656 31.773438 31.605469 32.898438 30.285156 35.160156 C 27.203125 40.445312 21.554688 40.664062 17.957031 37.910156 C 16.117188 37.269531 14.5 36.039062 13.476562 34.367188 C 10.496094 29.488281 13.183594 21.539062 21.828125 20.722656 L 21.816406 21.898438 L 21.816406 22.195312 C 22.28125 22.097656 22.769531 22.023438 23.285156 21.972656 L 23.285156 26.671875 C 21.410156 26.976562 20.222656 27.554688 19.667969 28.617188 C 18.554688 30.746094 19.058594 32.597656 20.222656 33.761719 C 22.664062 34.183594 25.382812 32.492188 24.976562 27.261719 L 24.976562 10.597656 Z M 30.019531 10.597656 "/>
<path style=" stroke:none;fill-rule:evenodd;fill:rgb(14.901961%,95.686275%,93.333333%);fill-opacity:1;" d="M 30.019531 10.597656 C 30.484375 14.558594 32.855469 17.351562 36.695312 17.597656 L 36.695312 21.355469 L 36.671875 21.359375 L 36.671875 18.167969 C 32.832031 17.917969 30.625 15.558594 30.160156 11.597656 L 26.09375 11.597656 L 26.09375 28.261719 C 26.679688 35.761719 20.835938 35.984375 18.601562 33.140625 C 21.222656 34.78125 25.480469 33.714844 24.976562 27.261719 L 24.976562 10.597656 Z M 19.089844 38.222656 C 16.792969 37.746094 14.703125 36.375 13.476562 34.367188 C 10.496094 29.488281 13.183594 21.539062 21.828125 20.722656 L 21.816406 21.898438 C 13.800781 23.175781 12.992188 31.785156 15.214844 35.367188 C 16.070312 36.75 17.476562 37.722656 19.089844 38.222656 Z M 19.089844 38.222656 "/>
<path style=" stroke:none;fill-rule:evenodd;fill:rgb(98.431373%,17.254902%,32.54902%);fill-opacity:1;" d="M 31.183594 11.847656 C 31.449219 14.101562 32.277344 16.066406 33.652344 17.382812 C 31.722656 16.386719 30.558594 14.484375 30.191406 11.847656 Z M 36.671875 18.972656 C 36.996094 19.042969 37.339844 19.089844 37.695312 19.113281 L 37.695312 23.566406 C 35.46875 23.785156 33.519531 23.054688 31.246094 21.6875 L 31.59375 29.3125 C 31.59375 31.773438 31.605469 32.898438 30.285156 35.160156 C 27.070312 40.675781 21.058594 40.671875 17.5 37.53125 C 22.140625 40.195312 30.238281 38.109375 30.222656 29.066406 L 30.222656 20.738281 C 32.496094 22.105469 34.445312 22.839844 36.671875 22.621094 Z M 21.816406 22.191406 C 22.28125 22.097656 22.769531 22.023438 23.285156 21.972656 L 23.285156 26.667969 C 21.410156 26.976562 20.222656 27.554688 19.667969 28.617188 C 18.101562 31.609375 19.738281 34.050781 21.90625 34.820312 C 19.195312 34.722656 16.503906 31.9375 18.371094 28.367188 C 18.929688 27.304688 19.941406 26.726562 21.816406 26.417969 Z M 21.816406 22.191406 "/>
<path style=" stroke:none;fill-rule:evenodd;fill:rgb(99.607843%,99.607843%,99.607843%);fill-opacity:1;" d="M 30.160156 11.597656 C 30.625 15.558594 32.832031 17.917969 36.671875 18.167969 L 36.671875 22.621094 C 34.445312 22.839844 32.496094 22.105469 30.222656 20.738281 L 30.222656 29.0625 C 30.242188 39.929688 18.554688 40.757812 15.214844 35.367188 C 12.992188 31.785156 13.800781 23.175781 21.816406 21.898438 L 21.816406 26.417969 C 19.941406 26.726562 18.929688 27.304688 18.371094 28.367188 C 14.933594 34.9375 26.921875 38.847656 26.09375 28.261719 L 26.09375 11.597656 Z M 30.160156 11.597656 "/>
</g>
</svg>
