<?xml version="1.0" encoding="UTF-8"?>
<svg xmlns="http://www.w3.org/2000/svg" xmlns:xlink="http://www.w3.org/1999/xlink" width="50px" height="50px" viewBox="0 0 50 50" version="1.1">
<g id="surface1">
<path style=" stroke:none;fill-rule:nonzero;fill:rgb(96.470588%,10.980392%,5.098039%);fill-opacity:1;" d="M 39.617188 7.308594 L 10.382812 7.308594 C 4.648438 7.308594 0 11.957031 0 17.695312 L 0 32.304688 C 0 38.042969 4.648438 42.691406 10.382812 42.691406 L 39.617188 42.691406 C 45.351562 42.691406 50 38.042969 50 32.304688 L 50 17.695312 C 50 11.957031 45.351562 7.308594 39.617188 7.308594 Z M 32.59375 25.710938 L 18.921875 32.230469 C 18.554688 32.40625 18.136719 32.140625 18.136719 31.738281 L 18.136719 18.285156 C 18.136719 17.878906 18.566406 17.613281 18.933594 17.796875 L 32.605469 24.726562 C 33.011719 24.933594 33.003906 25.515625 32.59375 25.710938 Z M 32.59375 25.710938 "/>
</g>
</svg>
